<svg xmlns="http://www.w3.org/2000/svg" version="1.1" xmlns:xlink="http://www.w3.org/1999/xlink" xmlns:svgjs="http://svgjs.dev/svgjs" width="1000" height="136" viewBox="0 0 1000 136"><g transform="matrix(1,0,0,1,-0.6060606060606233,0.21915597874613013)"><svg viewBox="0 0 396 54" data-background-color="#181d31" preserveAspectRatio="xMidYMid meet" height="136" width="1000" xmlns="http://www.w3.org/2000/svg" xmlns:xlink="http://www.w3.org/1999/xlink"><g id="tight-bounds" transform="matrix(1,0,0,1,0.2400000000000091,-0.08701627116778354)"><svg viewBox="0 0 395.52 54.174032542335574" height="54.174032542335574" width="395.52"><g><svg viewBox="0 0 935.5323884540937 128.139062642903" height="54.174032542335574" width="395.52"><g><rect width="8.20284355561034" height="91.4145423994304" x="510.3361324492417" y="18.362260121736306" fill="#fffcfc" opacity="1" stroke-width="0" stroke="transparent" fill-opacity="1" class="rect-o-0" data-fill-palette-color="primary" rx="1%" id="o-0" data-palette-color="#fffcfc"></rect></g><g transform="matrix(1,0,0,1,540.0123884540938,18.589659480938863)"><svg viewBox="0 0 395.52 90.95974368102529" height="90.95974368102529" width="395.52"><g id="textblocktransform"><svg viewBox="0 0 395.52 90.95974368102529" height="90.95974368102529" width="395.52" id="textblock"><g><svg viewBox="0 0 395.52 90.95974368102529" height="90.95974368102529" width="395.52"><g transform="matrix(1,0,0,1,0,0)"><svg width="395.52" viewBox="3.9000000953674316 -32.29999923706055 140.44000244140625 32.29999923706055" height="90.95974368102529" data-palette-color="#fffcfc"><path d="M30.9-32.3L30.5-9.95 30.75 0 23.45 0 10.3-21.8 9.9-21.8 9.85-11.1 10.05 0 3.9 0 4.25-9.5 3.95-32.2 11.2-32.2 24.35-10.4 24.8-10.4 24.65-31.9 30.9-32.3ZM48.95-4.9L55.75-5.1 56.15-4.7 55.7 0 38.4 0 38.65-7.5 38.4-25.25 55.95-25.25 56.3-24.75 55.9-20.1 49.4-20.35 44.7-20.35 44.6-15.25 49.1-15.2 53.45-15.35 53.8-14.9 53.4-10.15 48.65-10.3 44.5-10.3 44.45-8.1 44.55-4.9 48.95-4.9ZM95.65-25.25L87.15 0 80.34 0 76.8-10.8 76.4-10.8 72.8 0 66.05 0 58.9-25.25 65.2-25.25 65.59-21.75 69.7-6.55 70.09-6.55 74.2-19.25 72.55-25.25 79.05-25.25 79.59-21.15 83.84-6.55 84.25-6.55 89-21.4 89.69-25.25 95.65-25.25ZM113.39-25.25L121.44 0 115.09 0 114.39-3.65 113.94-5.1 108.84-5.15 104.34-5.05 103.99-4 103.24 0 97.09 0 105.94-25.25 113.39-25.25ZM109.24-9.8L112.59-9.85 109.74-19.5 109.34-19.5 105.99-9.85 109.24-9.8ZM134.89-8.25L134.84-6.85 135.09 0 128.79 0 129.09-6.85 129.04-8.1 120.49-25.25 127.19-25.25 127.74-23.4 131.99-14.55 132.34-14.55 137.04-23.15 137.84-25.25 144.34-25.25 134.89-8.25Z" opacity="1" transform="matrix(1,0,0,1,0,0)" fill="#fffcfc" class="undefined-text-0" data-fill-palette-color="primary" id="text-0"></path></svg></g></svg></g></svg></g></svg></g><g><svg viewBox="0 0 488.86271999999997 128.139062642903" height="128.139062642903" width="488.86271999999997"><g><svg xmlns="http://www.w3.org/2000/svg" xmlns:xlink="http://www.w3.org/1999/xlink" version="1.0" x="0" y="0" viewBox="5.061999797821045 38.22100067138672 89.87600708007812 23.557998657226562" enable-background="new 0 0 100 100" xml:space="preserve" height="128.139062642903" width="488.86271999999997" class="icon-icon-0" data-fill-palette-color="accent" id="icon-0"><polygon fill="#f62d2d" points="94.938,46.021 85.172,46.021 85.172,43.973 89.941,42.292 94.938,43.973 " data-fill-palette-color="accent"></polygon><path fill="#f62d2d" d="M85.172 46.86v12.076h3.464v-5.407h0.005c0.016-0.769 0.641-1.387 1.413-1.387s1.399 0.618 1.414 1.387h0.005v5.407h3.465V46.86H85.172z" data-fill-palette-color="accent"></path><polygon fill="#f62d2d" points="14.829,46.021 5.062,46.021 5.062,43.973 9.833,42.292 14.829,43.973 " data-fill-palette-color="accent"></polygon><path fill="#f62d2d" d="M5.062 46.86v12.076h3.466v-5.407h0.004c0.015-0.769 0.641-1.387 1.413-1.387 0.772 0 1.399 0.618 1.414 1.387h0.004v5.407h3.466V46.86H5.062z" data-fill-palette-color="accent"></path><path fill="#f62d2d" d="M15.154 46.86v12.076h28.444V46.86H15.154zM18.725 57.229H16.97v-3.533h1.755V57.229zM18.725 52.112H16.97V48.58h1.755V52.112zM22.615 57.229H20.86v-3.533h1.755V57.229zM22.615 52.112H20.86V48.58h1.755V52.112zM26.506 57.229h-1.755v-3.533h1.755V57.229zM26.506 52.112h-1.755V48.58h1.755V52.112zM30.397 57.229h-1.755v-3.533h1.755V57.229zM30.397 52.112h-1.755V48.58h1.755V52.112zM34.288 57.229h-1.754v-3.533h1.754V57.229zM34.288 52.112h-1.754V48.58h1.754V52.112zM38.179 57.229h-1.755v-3.533h1.755V57.229zM38.179 52.112h-1.755V48.58h1.755V52.112zM42.07 57.229h-1.755v-3.533h1.755V57.229zM42.07 52.112h-1.755V48.58h1.755V52.112z" data-fill-palette-color="accent"></path><rect x="15.154" y="44.789" fill="#f62d2d" width="28.444" height="1.232" data-fill-palette-color="accent"></rect><path fill="#f62d2d" d="M56.401 46.86v12.076h28.444V46.86H56.401zM59.973 57.229h-1.755v-3.533h1.755V57.229zM59.973 52.112h-1.755V48.58h1.755V52.112zM63.863 57.229h-1.754v-3.533h1.754V57.229zM63.863 52.112h-1.754V48.58h1.754V52.112zM67.755 57.229H66v-3.533h1.755V57.229zM67.755 52.112H66V48.58h1.755V52.112zM71.646 57.229h-1.755v-3.533h1.755V57.229zM71.646 52.112h-1.755V48.58h1.755V52.112zM75.535 57.229h-1.753v-3.533h1.753V57.229zM75.535 52.112h-1.753V48.58h1.753V52.112zM79.428 57.229h-1.755v-3.533h1.755V57.229zM79.428 52.112h-1.755V48.58h1.755V52.112zM83.317 57.229h-1.754v-3.533h1.754V57.229zM83.317 52.112h-1.754V48.58h1.754V52.112z" data-fill-palette-color="accent"></path><rect x="56.401" y="44.789" fill="#f62d2d" width="28.444" height="1.232" data-fill-palette-color="accent"></rect><path fill="#f62d2d" d="M43.923 58.937h4.312v-6.73h0.005c0.019-0.956 0.798-1.725 1.759-1.725s1.741 0.769 1.759 1.725h0.006v6.73h4.312v-15.03H43.923V58.937zM50 45.738c0.655 0 1.187 0.531 1.187 1.186 0 0.656-0.532 1.188-1.187 1.188s-1.186-0.532-1.186-1.188C48.814 46.269 49.345 45.738 50 45.738z" data-fill-palette-color="accent"></path><polygon fill="#f62d2d" points="49.859,38.221 43.923,40.312 43.923,42.861 56.077,42.861 56.077,40.312 " data-fill-palette-color="accent"></polygon><rect x="5.062" y="59.911" fill="#f62d2d" width="89.875" height="1.868" data-fill-palette-color="accent"></rect></svg></g></svg></g></svg></g><defs></defs></svg><rect width="395.52" height="54.174032542335574" fill="none" stroke="none" visibility="hidden"></rect></g></svg></g></svg>